<?xml version="1.0" encoding="UTF-8"?>
<svg version="1.1" xmlns="http://www.w3.org/2000/svg" width="1500" height="383">
<path d="M0 0 C1.28970703 -0.00773437 2.57941406 -0.01546875 3.90820312 -0.0234375 C27.14589767 0.02310771 50.53773136 5.14711786 70.5625 17.25 C71.43519531 17.75660156 72.30789063 18.26320313 73.20703125 18.78515625 C78.17909014 21.69981146 83.02076245 24.6955967 87.5625 28.25 C87.5625 28.91 87.5625 29.57 87.5625 30.25 C88.305 30.48976563 89.0475 30.72953125 89.8125 30.9765625 C92.95610722 32.43226698 94.37212809 33.96652442 96.5625 36.625 C99.36697583 39.92407382 102.15124442 42.5763132 105.5625 45.25 C110.5625 50.41574586 110.5625 50.41574586 110.5625 54.25 C111.2225 54.25 111.8825 54.25 112.5625 54.25 C114.0703125 56.11328125 114.0703125 56.11328125 115.6875 58.5625 C116.22632813 59.36300781 116.76515625 60.16351563 117.3203125 60.98828125 C118.5625 63.25 118.5625 63.25 118.5625 66.25 C119.2225 66.25 119.8825 66.25 120.5625 66.25 C125.70691496 76.07927921 130.02536257 85.71990121 133.5625 96.25 C134.09706946 97.60698402 134.63757757 98.9616649 135.1875 100.3125 C137.25339514 105.79060396 138.34338579 111.5377587 139.5625 117.25 C139.83320312 118.45269531 140.10390625 119.65539062 140.3828125 120.89453125 C142.28277552 129.70261225 143.11827222 138.26364211 143.5625 147.25 C143.665625 148.49136719 143.76875 149.73273438 143.875 151.01171875 C146.67497862 185.62645443 139.80521975 219.74721965 125 251 C124.60103516 251.84949219 124.20207031 252.69898438 123.79101562 253.57421875 C123.40494141 254.39019531 123.01886719 255.20617187 122.62109375 256.046875 C122.09986938 257.15047363 122.09986938 257.15047363 121.56811523 258.27636719 C120.5625 260.25 120.5625 260.25 118.5625 263.25 C117.9025 263.25 117.2425 263.25 116.5625 263.25 C116.418125 263.86875 116.27375 264.4875 116.125 265.125 C115.5625 267.25 115.5625 267.25 114.5625 269.25 C113.9025 269.25 113.2425 269.25 112.5625 269.25 C112.4078125 270.11625 112.4078125 270.11625 112.25 271 C111.45353535 273.60661158 110.37184723 275.2235311 108.5625 277.25 C107.9025 277.25 107.2425 277.25 106.5625 277.25 C106.23185547 278.31154297 106.23185547 278.31154297 105.89453125 279.39453125 C104.26321827 282.89156876 101.97239244 285.28018467 99.25 287.9375 C98.77626953 288.42283203 98.30253906 288.90816406 97.81445312 289.40820312 C94.89062176 292.30803588 92.35520768 293.77990623 88.5625 295.25 C88.2325 296.24 87.9025 297.23 87.5625 298.25 C86.9025 298.91 86.2425 299.57 85.5625 300.25 C94.58478249 311.59085788 106.07834719 318.4351182 120.5625 320.25 C126.88705442 320.74247483 133.22442382 321.00272393 139.5625 321.25 C140.5625 324.25 140.5625 324.25 139.99609375 325.94921875 C139.66738281 326.60535156 139.33867188 327.26148438 139 327.9375 C136.55354831 333.09465427 134.60544452 338.38854961 132.66967773 343.75268555 C131.52784297 346.87078729 130.41446876 349.47204686 128.5625 352.25 C125.86821072 352.5331287 123.44058816 352.62637413 120.75 352.5625 C119.98679443 352.5519458 119.22358887 352.5413916 118.43725586 352.53051758 C111.69786032 352.37483592 105.16347624 351.64670252 98.5625 350.25 C97.75039062 350.07855469 96.93828125 349.90710938 96.1015625 349.73046875 C79.01573205 345.33129314 62.9427257 334.47475374 52.5625 320.25 C52.5625 319.59 52.5625 318.93 52.5625 318.25 C51.9025 318.25 51.2425 318.25 50.5625 318.25 C48.26601351 315.6885343 47.5625 314.77032428 47.5625 311.25 C46.9025 311.25 46.2425 311.25 45.5625 311.25 C45.2325 309.6 44.9025 307.95 44.5625 306.25 C43.9025 306.25 43.2425 306.25 42.5625 306.25 C42.29695313 305.68410156 42.03140625 305.11820312 41.7578125 304.53515625 C41.40460938 303.80167969 41.05140625 303.06820313 40.6875 302.3125 C40.16542969 301.21615234 40.16542969 301.21615234 39.6328125 300.09765625 C38.6940023 298.08667541 38.6940023 298.08667541 36.5625 297.25 C36.22776866 301.04154462 35.89495159 304.83325486 35.5625 308.625 C35.41941406 310.24535156 35.41941406 310.24535156 35.2734375 311.8984375 C35.18320313 312.9296875 35.09296875 313.9609375 35 315.0234375 C34.91621094 315.97653809 34.83242187 316.92963867 34.74609375 317.91162109 C34.53640921 320.19138149 34.53640921 320.19138149 34.5625 322.25 C5.08057514 327.72142029 -27.68147967 327.86247292 -55.4375 315.25 C-56.59121094 314.72664063 -57.74492188 314.20328125 -58.93359375 313.6640625 C-62.1089785 312.20796573 -65.27624925 310.73648154 -68.4375 309.25 C-68.4375 308.59 -68.4375 307.93 -68.4375 307.25 C-69.675 306.9096875 -69.675 306.9096875 -70.9375 306.5625 C-75.10259486 305.00058943 -78.9375943 303.02149893 -82.4375 300.25 C-82.4375 299.59 -82.4375 298.93 -82.4375 298.25 C-83.1696875 297.99863281 -83.901875 297.74726563 -84.65625 297.48828125 C-87.64697084 296.15673841 -89.53666501 294.64812799 -91.9375 292.4375 C-92.71480469 291.72335937 -93.49210937 291.00921875 -94.29296875 290.2734375 C-98.31640303 286.47719168 -102.16783258 282.73065535 -105.4375 278.25 C-105.4375 277.59 -105.4375 276.93 -105.4375 276.25 C-106.4275 275.92 -107.4175 275.59 -108.4375 275.25 C-109.125 273.1875 -109.125 273.1875 -109.4375 271.25 C-110.0975 271.25 -110.7575 271.25 -111.4375 271.25 C-112.9453125 269.38671875 -112.9453125 269.38671875 -114.5625 266.9375 C-115.10132813 266.13699219 -115.64015625 265.33648437 -116.1953125 264.51171875 C-117.4375 262.25 -117.4375 262.25 -117.4375 259.25 C-118.0975 259.25 -118.7575 259.25 -119.4375 259.25 C-144.50334579 211.40858874 -150.32087871 153.36680005 -134.78833008 101.41040039 C-130.81850821 88.79667133 -125.54039615 76.96828285 -119.4375 65.25 C-118.7775 65.25 -118.1175 65.25 -117.4375 65.25 C-117.32277344 64.67765625 -117.20804688 64.1053125 -117.08984375 63.515625 C-116.37567644 61.03528344 -115.36442128 59.18631303 -114 57 C-113.35224609 55.94039062 -113.35224609 55.94039062 -112.69140625 54.859375 C-112.27761719 54.32828125 -111.86382813 53.7971875 -111.4375 53.25 C-110.7775 53.25 -110.1175 53.25 -109.4375 53.25 C-108.7775 51.6 -108.1175 49.95 -107.4375 48.25 C-106.7775 48.25 -106.1175 48.25 -105.4375 48.25 C-105.09138672 47.17298828 -105.09138672 47.17298828 -104.73828125 46.07421875 C-103.18402859 42.69967018 -101.25964801 40.67344803 -98.625 38.0625 C-97.77292969 37.20269531 -96.92085937 36.34289063 -96.04296875 35.45703125 C-93.51120416 33.31243306 -91.47262134 32.45239537 -88.4375 31.25 C-87.9425 29.765 -87.9425 29.765 -87.4375 28.25 C-84.85677097 25.92734388 -83.98573932 25.25 -80.4375 25.25 C-80.4375 24.59 -80.4375 23.93 -80.4375 23.25 C-77.4375 21.25 -77.4375 21.25 -74.4375 21.25 C-74.4375 20.59 -74.4375 19.93 -74.4375 19.25 C-73.591875 18.8375 -72.74625 18.425 -71.875 18 C-69.60870053 16.84624754 -67.37648626 15.6225736 -65.1875 14.328125 C-61.5951422 12.26885384 -57.88130848 10.68103172 -54 9.25 C-53.31115723 8.99508789 -52.62231445 8.74017578 -51.91259766 8.47753906 C-35.01814421 2.39476876 -17.94515521 -0.1072954 0 0 Z M-21.4375 38.25 C-22.64986328 38.48396484 -22.64986328 38.48396484 -23.88671875 38.72265625 C-28.96128252 39.74790767 -33.68562262 41.1978618 -38.4375 43.25 C-39.32050781 43.62640625 -40.20351562 44.0028125 -41.11328125 44.390625 C-52.27756877 49.53654826 -62.54214258 57.11411047 -70.203125 66.7890625 C-71.4375 68.25 -71.4375 68.25 -73.4375 69.25 C-75.73786185 72.48348712 -75.73786185 72.48348712 -76.4375 76.25 C-77.0975 76.25 -77.7575 76.25 -78.4375 76.25 C-78.7675 77.9 -79.0975 79.55 -79.4375 81.25 C-80.0975 81.25 -80.7575 81.25 -81.4375 81.25 C-101.09871734 122.47301903 -104.96820644 172.52929037 -90.4375 216.25 C-88.87381303 220.2971898 -87.18087122 224.2774 -85.4375 228.25 C-84.91569936 229.47875634 -84.39469053 230.70784972 -83.875 231.9375 C-82.08881384 236.0534942 -80.26752675 240.15334112 -78.4375 244.25 C-77.7775 244.25 -77.1175 244.25 -76.4375 244.25 C-76.210625 244.91 -75.98375 245.57 -75.75 246.25 C-71.91466684 255.01647579 -66.05759602 260.83615838 -59.0625 267.25 C-58.16789062 268.075 -57.27328125 268.9 -56.3515625 269.75 C-50.94347867 274.38964297 -45.5499177 277.99693939 -39 280.8125 C-38.31405762 281.10914551 -37.62811523 281.40579102 -36.92138672 281.71142578 C-26.64946931 285.99470539 -15.5898107 288.86543756 -4.4375 289.25 C-3.29925781 289.28996094 -2.16101562 289.32992187 -0.98828125 289.37109375 C9.78627561 289.55934397 20.35374333 288.90366028 30.5625 285.25 C30.2325 283.93 29.9025 282.61 29.5625 281.25 C28.9025 281.25 28.2425 281.25 27.5625 281.25 C27.500625 280.693125 27.43875 280.13625 27.375 279.5625 C26.2148629 276.26057134 24.10690205 274.62092009 21.5625 272.25 C20.675625 271.321875 19.78875 270.39375 18.875 269.4375 C16.85087851 267.02093338 16.85087851 267.02093338 14.5625 267.25 C14.5625 266.59 14.5625 265.93 14.5625 265.25 C1.75415886 258.37144642 -9.10983136 257.84331945 -23.4375 258.25 C-21.84106457 248.84491304 -17.42783695 239.95276965 -13.35546875 231.39453125 C-12.30632831 229.33235079 -12.30632831 229.33235079 -12.4375 227.25 C-0.07950623 227.99658786 10.67032415 229.68143252 22.30078125 234.03125 C25.36761364 235.17718019 28.45082408 236.23317398 31.5625 237.25 C31.5625 237.91 31.5625 238.57 31.5625 239.25 C32.16578125 239.56453125 32.7690625 239.8790625 33.390625 240.203125 C37.71617345 242.51938643 41.23331025 244.5986306 44.5625 248.25 C45.87004877 249.36002545 47.18316557 250.46350621 48.5 251.5625 C52.24662399 254.80075308 54.80444584 258.15231953 57.5625 262.25 C58.56126008 263.25123839 59.5611292 264.25137268 60.5625 265.25 C60.8925 265.91 61.2225 266.57 61.5625 267.25 C62.2225 267.25 62.8825 267.25 63.5625 267.25 C64.76878008 269.58214148 65.7279738 271.74642139 66.5625 274.25 C67.2225 274.25 67.8825 274.25 68.5625 274.25 C68.5625 275.24 68.5625 276.23 68.5625 277.25 C69.2225 277.25 69.8825 277.25 70.5625 277.25 C71.5525 279.725 71.5525 279.725 72.5625 282.25 C72.8925 282.25 73.2225 282.25 73.5625 282.25 C73.8925 272.68 74.2225 263.11 74.5625 253.25 C75.2225 252.92 75.8825 252.59 76.5625 252.25 C76.5625 251.26 76.5625 250.27 76.5625 249.25 C77.2225 249.25 77.8825 249.25 78.5625 249.25 C78.5625 248.26 78.5625 247.27 78.5625 246.25 C79.2225 246.25 79.8825 246.25 80.5625 246.25 C80.8925 244.6 81.2225 242.95 81.5625 241.25 C82.2225 241.25 82.8825 241.25 83.5625 241.25 C101.72510972 206.87077445 104.71933702 161.57586618 95.27734375 124.13671875 C94.61277607 121.45302739 94.10189523 118.78460112 93.625 116.0625 C92.59123049 110.81801077 90.64438745 106.1544464 88.5625 101.25 C87.46838582 98.54595513 86.39090673 95.8353404 85.3125 93.125 C84.78672846 91.80978782 84.26070863 90.49467484 83.734375 89.1796875 C83.34765625 88.21289062 82.9609375 87.24609375 82.5625 86.25 C81.9025 86.25 81.2425 86.25 80.5625 86.25 C79.9025 83.94 79.2425 81.63 78.5625 79.25 C77.9025 79.25 77.2425 79.25 76.5625 79.25 C75.5725 76.28 75.5725 76.28 74.5625 73.25 C73.9025 73.25 73.2425 73.25 72.5625 73.25 C72.500625 72.693125 72.43875 72.13625 72.375 71.5625 C71.2148629 68.26057134 69.10690205 66.62092009 66.5625 64.25 C65.386875 63.0434375 65.386875 63.0434375 64.1875 61.8125 C59.08654032 56.06458447 59.08654032 56.06458447 52.5625 53.25 C52.5625 52.59 52.5625 51.93 52.5625 51.25 C47.25202602 48.53546492 41.91958708 45.87129833 36.5625 43.25 C35.6859375 42.81558594 34.809375 42.38117188 33.90625 41.93359375 C17.23404959 34.44871505 -3.88189476 34.43356408 -21.4375 38.25 Z " fill="#B10CC9" transform="translate(1339.4375,24.75)"/>
<path d="M0 0 C0 0.66 0 1.32 0 2 C0.99 2 1.98 2 3 2 C3 2.66 3 3.32 3 4 C4.32 4.33 5.64 4.66 7 5 C7 5.66 7 6.32 7 7 C7.680625 7.165 8.36125 7.33 9.0625 7.5 C13.35109203 9.68991933 16.19509056 13.12000999 19 17 C19 17.66 19 18.32 19 19 C19.66 19 20.32 19 21 19 C26.13586575 26.09238604 30.21119213 33.70192954 33 42 C33.39445312 43.12728516 33.39445312 43.12728516 33.796875 44.27734375 C39.13356971 60.64139232 40.17840093 77.53670355 40.125 94.625 C40.12886719 95.87023437 40.13273438 97.11546875 40.13671875 98.3984375 C40.13478516 100.23148438 40.13478516 100.23148438 40.1328125 102.1015625 C40.13168457 103.18775879 40.13055664 104.27395508 40.12939453 105.39306641 C39.96622902 109.94138193 39.45286543 114.47134568 39 119 C-9.51 119 -58.02 119 -108 119 C-106.28187552 141.33561818 -101.98698966 161.25662802 -85.953125 177.80859375 C-84 180 -84 180 -82.984375 182.22265625 C-82.16957579 184.17539648 -82.16957579 184.17539648 -80.1875 184.5703125 C-79.465625 184.71210938 -78.74375 184.85390625 -78 185 C-76.3149673 185.92565941 -74.64986739 186.88802576 -73 187.875 C-55.06295915 197.69316973 -32.4407144 195.31050359 -13.39453125 189.7890625 C-10.1577563 188.72245803 -7.11646087 187.37843462 -4 186 C-1.68037355 185.25881758 0.64509381 184.62477103 3 184 C3 183.34 3 182.68 3 182 C5.97 180.35 8.94 178.7 12 177 C15.51393002 179.87503365 18.78910917 182.78910917 22 186 C22.9075 186.70125 23.815 187.4025 24.75 188.125 C25.4925 188.74375 26.235 189.3625 27 190 C27 190.66 27 191.32 27 192 C27.763125 192.268125 28.52625 192.53625 29.3125 192.8125 C31.87380884 193.94424112 33.19692938 194.91223401 35 197 C33.45332211 201.0741759 30.54899204 203.34471372 27.25 206 C26.73695313 206.42539062 26.22390625 206.85078125 25.6953125 207.2890625 C22.2694154 210.09519932 18.72001371 212.60163725 15 215 C14.35417969 215.42023438 13.70835937 215.84046875 13.04296875 216.2734375 C-4.41821753 226.63986809 -23.87591977 229.22392672 -43.8125 229.3125 C-45.01616211 229.31813965 -46.21982422 229.3237793 -47.45996094 229.32958984 C-66.51493802 229.17537261 -82.1776161 224.41119195 -99 216 C-99 215.34 -99 214.68 -99 214 C-99.53625 213.9175 -100.0725 213.835 -100.625 213.75 C-103.87340691 212.72418729 -106.28751859 211.03436106 -109 209 C-109 208.34 -109 207.68 -109 207 C-110.10408203 206.64421875 -110.10408203 206.64421875 -111.23046875 206.28125 C-114.42715672 204.8023873 -116.02278004 203.15624763 -118.3125 200.5 C-119.35857422 199.30890625 -119.35857422 199.30890625 -120.42578125 198.09375 C-122 196 -122 196 -122 194 C-122.99 193.67 -123.98 193.34 -125 193 C-125 192.01 -125 191.02 -125 190 C-125.66 190 -126.32 190 -127 190 C-130.08284263 186.12963993 -132.53198701 181.99213851 -133 177 C-133.66 177 -134.32 177 -135 177 C-151.66877152 139.10761823 -154.37917577 94.06900084 -140 55 C-138.77308847 52.25512128 -137.42182612 49.65407542 -136 47 C-135.67 46.175 -135.34 45.35 -135 44.5 C-133.55574542 40.88936355 -131.76898607 37.46068634 -130 34 C-129.34 34 -128.68 34 -128 34 C-127.91492188 33.45730469 -127.82984375 32.91460937 -127.7421875 32.35546875 C-126.74936734 29.20457109 -125.06772532 26.97752063 -123.125 24.3125 C-122.42632813 23.33925781 -121.72765625 22.36601562 -121.0078125 21.36328125 C-119 19 -119 19 -116 18 C-115.32205824 16.67236406 -114.65698758 15.33812912 -114 14 C-112.125 12.1484375 -112.125 12.1484375 -110 10.375 C-107.92339664 8.6266832 -105.92037235 6.92037235 -104 5 C-103.01 5 -102.02 5 -101 5 C-101 4.34 -101 3.68 -101 3 C-100.01 3 -99.02 3 -98 3 C-98 2.34 -98 1.68 -98 1 C-85.68550777 -4.87336673 -74.60804387 -9.39116723 -61 -11 C-60.11828125 -11.12375 -59.2365625 -11.2475 -58.328125 -11.375 C-38.03040618 -13.83532955 -18.06365708 -9.24687207 0 0 Z M-77 30 C-77 30.66 -77 31.32 -77 32 C-77.721875 32.226875 -78.44375 32.45375 -79.1875 32.6875 C-82.57355877 34.26766076 -84.46677659 36.27191325 -87 39 C-91 43 -91 43 -92.44140625 44.328125 C-98.35242316 50.66876469 -100.97859021 59.44231779 -103.66796875 67.50146484 C-105.77093878 73.6741223 -108.50165735 79.30772362 -111.58203125 85.046875 C-112.88845773 87.76769708 -113.57632848 90.02879712 -114 93 C-103.31115596 92.30342365 -92.28827459 90.96737803 -81.84941101 88.48951721 C-78.31712249 87.88268442 -74.84500833 87.82358357 -71.2722168 87.79467773 C-70.51070816 87.78477814 -69.74919952 87.77487854 -68.96461487 87.76467896 C-66.45951394 87.7332118 -63.95439408 87.7083653 -61.44921875 87.68359375 C-59.70758077 87.66301144 -57.96594765 87.64201463 -56.22431946 87.62062073 C-51.64919982 87.56553193 -47.07403609 87.51606468 -42.49884033 87.46777344 C-37.82666111 87.41746187 -33.15454561 87.36182629 -28.48242188 87.30664062 C-19.32166907 87.19922049 -10.16086084 87.09773991 -1 87 C1.95386366 73.10726466 -0.40073629 59.8170646 -6 47 C-6.67148778 45.33526988 -7.33943904 43.669096 -8 42 C-8.66 42 -9.32 42 -10 42 C-10 41.01 -10 40.02 -10 39 C-10.66 39 -11.32 39 -12 39 C-12.33451172 37.87464844 -12.33451172 37.87464844 -12.67578125 36.7265625 C-15.86883852 30.15206699 -25.29653621 26.3659284 -32 24 C-34.90073181 23.32198966 -34.90073181 23.32198966 -38 23 C-38.65613281 22.896875 -39.31226563 22.79375 -39.98828125 22.6875 C-53.02314632 20.83529892 -65.53806447 23.7283749 -77 30 Z " fill="#B10CC8" transform="translate(748,121)"/>
<path d="M0 0 C0 0.99 0 1.98 0 3 C0.66 3 1.32 3 2 3 C4.29648649 5.5614657 5 6.47967572 5 10 C5.66 10 6.32 10 7 10 C7 10.99 7 11.98 7 13 C7.66 13 8.32 13 9 13 C11.29648649 15.5614657 12 16.47967572 12 20 C12.66 20 13.32 20 14 20 C14 20.99 14 21.98 14 23 C14.66 23 15.32 23 16 23 C17.2890625 24.42578125 17.2890625 24.42578125 18.625 26.3125 C19.07101562 26.92738281 19.51703125 27.54226562 19.9765625 28.17578125 C21 30 21 30 21 33 C21.66 33 22.32 33 23 33 C24.2890625 34.42578125 24.2890625 34.42578125 25.625 36.3125 C26.07101562 36.92738281 26.51703125 37.54226562 26.9765625 38.17578125 C28 40 28 40 28 43 C28.66 43 29.32 43 30 43 C31.2890625 44.42578125 31.2890625 44.42578125 32.625 46.3125 C33.07101562 46.92738281 33.51703125 47.54226562 33.9765625 48.17578125 C35 50 35 50 35 53 C35.66 53 36.32 53 37 53 C38.2890625 54.42578125 38.2890625 54.42578125 39.625 56.3125 C40.07101562 56.92738281 40.51703125 57.54226562 40.9765625 58.17578125 C42 60 42 60 42 63 C42.66 63 43.32 63 44 63 C47.88302326 67.57997615 49.699925 71.59879201 51.24609375 77.359375 C53.13888845 84.70510081 53.13888845 84.70510081 57 91 C57.38671875 89.78183594 57.7734375 88.56367188 58.171875 87.30859375 C58.69750792 85.68476347 59.22357262 84.0610729 59.75 82.4375 C60.12898437 81.23770508 60.12898437 81.23770508 60.515625 80.01367188 C62.17685887 74.92614314 64.1869756 70.55587647 67 66 C67.66 66 68.32 66 69 66 C69 65.01 69 64.02 69 63 C69.66 63 70.32 63 71 63 C71.309375 62.21625 71.61875 61.4325 71.9375 60.625 C73 58 73 58 74 56 C74.66 56 75.32 56 76 56 C76.185625 55.1028125 76.185625 55.1028125 76.375 54.1875 C77 52 77 52 79 49 C79.66 49 80.32 49 81 49 C81 48.01 81 47.02 81 46 C81.66 46 82.32 46 83 46 C83.309375 45.21625 83.61875 44.4325 83.9375 43.625 C85 41 85 41 86 39 C86.66 39 87.32 39 88 39 C88.185625 38.1028125 88.185625 38.1028125 88.375 37.1875 C89 35 89 35 91 32 C91.66 32 92.32 32 93 32 C93 31.01 93 30.02 93 29 C93.66 29 94.32 29 95 29 C95.185625 28.1028125 95.185625 28.1028125 95.375 27.1875 C96 25 96 25 98 22 C98.66 22 99.32 22 100 22 C100.185625 21.1028125 100.185625 21.1028125 100.375 20.1875 C101 18 101 18 103 15 C103.66 15 104.32 15 105 15 C105 14.01 105 13.02 105 12 C105.66 12 106.32 12 107 12 C107.061875 11.443125 107.12375 10.88625 107.1875 10.3125 C108.40570577 6.84529895 110.15172503 5.3165474 113 3 C115.86943118 2.13198325 118.70436848 1.9359347 121.6875 1.75 C122.92922974 1.64679443 122.92922974 1.64679443 124.19604492 1.54150391 C126.79622073 1.33412037 129.39667046 1.16264723 132 1 C132.84079102 0.94360352 133.68158203 0.88720703 134.54785156 0.82910156 C141.69685668 0.35549048 148.83171747 -0.06751914 156 0 C156 0.99 156 1.98 156 3 C155.34 3 154.68 3 154 3 C153.87625 3.598125 153.7525 4.19625 153.625 4.8125 C153 7 153 7 151 10 C150.34 10 149.68 10 149 10 C148.9175 10.53625 148.835 11.0725 148.75 11.625 C147.72418729 14.87340691 146.03436106 17.28751859 144 20 C143.34 20 142.68 20 142 20 C141.9175 20.53625 141.835 21.0725 141.75 21.625 C140.72418729 24.87340691 139.03436106 27.28751859 137 30 C136.34 30 135.68 30 135 30 C134.9175 30.53625 134.835 31.0725 134.75 31.625 C133.72418729 34.87340691 132.03436106 37.28751859 130 40 C129.34 40 128.68 40 128 40 C127.9175 40.53625 127.835 41.0725 127.75 41.625 C126.72418729 44.87340691 125.03436106 47.28751859 123 50 C122.34 50 121.68 50 121 50 C120.9175 50.53625 120.835 51.0725 120.75 51.625 C119.72418729 54.87340691 118.03436106 57.28751859 116 60 C115.34 60 114.68 60 114 60 C113.9175 60.53625 113.835 61.0725 113.75 61.625 C112.72418729 64.87340691 111.03436106 67.28751859 109 70 C108.34 70 107.68 70 107 70 C106.9175 70.53625 106.835 71.0725 106.75 71.625 C105.72418729 74.87340691 104.03436106 77.28751859 102 80 C101.34 80 100.68 80 100 80 C99.87625 80.598125 99.7525 81.19625 99.625 81.8125 C99 84 99 84 97 87 C96.34 87 95.68 87 95 87 C95 87.99 95 88.98 95 90 C94.34 90 93.68 90 93 90 C92.87625 90.598125 92.7525 91.19625 92.625 91.8125 C92 94 92 94 90 97 C89.34 97 88.68 97 88 97 C88 97.99 88 98.98 88 100 C87.34 100 86.68 100 86 100 C85.87625 100.598125 85.7525 101.19625 85.625 101.8125 C85 104 85 104 83 107 C82.34 107 81.68 107 81 107 C81 107.99 81 108.98 81 110 C80.34 110 79.68 110 79 110 C79.309375 110.9075 79.61875 111.815 79.9375 112.75 C80.7272263 115.16563338 81.42949297 117.52780285 82 120 C82.66 120 83.32 120 84 120 C86.29648649 122.5614657 87 123.47967572 87 127 C87.66 127 88.32 127 89 127 C89 127.99 89 128.98 89 130 C89.66 130 90.32 130 91 130 C93.29648649 132.5614657 94 133.47967572 94 137 C94.66 137 95.32 137 96 137 C98.29648649 139.5614657 99 140.47967572 99 144 C99.66 144 100.32 144 101 144 C101 144.99 101 145.98 101 147 C101.66 147 102.32 147 103 147 C105.29648649 149.5614657 106 150.47967572 106 154 C106.66 154 107.32 154 108 154 C110.29648649 156.5614657 111 157.47967572 111 161 C111.66 161 112.32 161 113 161 C113 161.99 113 162.98 113 164 C113.66 164 114.32 164 115 164 C117.29648649 166.5614657 118 167.47967572 118 171 C118.66 171 119.32 171 120 171 C121.2890625 172.42578125 121.2890625 172.42578125 122.625 174.3125 C123.07101562 174.92738281 123.51703125 175.54226563 123.9765625 176.17578125 C125 178 125 178 125 181 C125.66 181 126.32 181 127 181 C129.29648649 183.5614657 130 184.47967572 130 188 C130.66 188 131.32 188 132 188 C133.2890625 189.42578125 133.2890625 189.42578125 134.625 191.3125 C135.07101562 191.92738281 135.51703125 192.54226563 135.9765625 193.17578125 C137 195 137 195 137 198 C137.66 198 138.32 198 139 198 C141.29648649 200.5614657 142 201.47967572 142 205 C142.66 205 143.32 205 144 205 C144 205.99 144 206.98 144 208 C144.66 208 145.32 208 146 208 C148.29648649 210.5614657 149 211.47967572 149 215 C149.66 215 150.32 215 151 215 C153.29648649 217.5614657 154 218.47967572 154 222 C154.66 222 155.32 222 156 222 C156 222.99 156 223.98 156 225 C156.66 225 157.32 225 158 225 C160.29648649 227.5614657 161 228.47967572 161 232 C161.66 232 162.32 232 163 232 C163.99 234.475 163.99 234.475 165 237 C158.20071581 237.0505894 151.4014799 237.08568667 144.60205078 237.10986328 C142.28757921 237.11993892 139.97312041 237.13359975 137.65869141 237.15087891 C134.33753307 237.17505865 131.0165426 237.1864673 127.6953125 237.1953125 C126.65569366 237.20563507 125.61607483 237.21595764 124.54495239 237.22659302 C123.58410736 237.22674408 122.62326233 237.22689514 121.63330078 237.22705078 C120.78502716 237.231492 119.93675354 237.23593323 119.06277466 237.24050903 C117 237 117 237 115 235 C115 234.01 115 233.02 115 232 C114.34 232 113.68 232 113 232 C111.7109375 230.57421875 111.7109375 230.57421875 110.375 228.6875 C109.92898438 228.07261719 109.48296875 227.45773437 109.0234375 226.82421875 C108 225 108 225 108 222 C107.34 222 106.68 222 106 222 C103.70351351 219.4385343 103 218.52032428 103 215 C102.34 215 101.68 215 101 215 C101 214.01 101 213.02 101 212 C100.34 212 99.68 212 99 212 C96.70351351 209.4385343 96 208.52032428 96 205 C95.34 205 94.68 205 94 205 C94 204.01 94 203.02 94 202 C93.34 202 92.68 202 92 202 C89.70351351 199.4385343 89 198.52032428 89 195 C88.34 195 87.68 195 87 195 C87 194.01 87 193.02 87 192 C86.34 192 85.68 192 85 192 C82.70351351 189.4385343 82 188.52032428 82 185 C81.34 185 80.68 185 80 185 C78.7109375 183.57421875 78.7109375 183.57421875 77.375 181.6875 C76.92898438 181.07261719 76.48296875 180.45773437 76.0234375 179.82421875 C75 178 75 178 75 175 C74.34 175 73.68 175 73 175 C71.7109375 173.57421875 71.7109375 173.57421875 70.375 171.6875 C69.92898438 171.07261719 69.48296875 170.45773437 69.0234375 169.82421875 C68 168 68 168 68 165 C67.34 165 66.68 165 66 165 C59.35632824 157.43359605 56.25401514 147.09219924 53.25 137.625 C52.4501188 133.93348447 52.4501188 133.93348447 50 133 C49.82984375 133.60585937 49.6596875 134.21171875 49.484375 134.8359375 C47.05822915 143.22420773 44.07033528 151.26636297 40 159 C39.34 159 38.68 159 38 159 C38 159.99 38 160.98 38 162 C37.34 162 36.68 162 36 162 C35.87625 162.598125 35.7525 163.19625 35.625 163.8125 C35 166 35 166 33 169 C32.34 169 31.68 169 31 169 C30.9175 169.53625 30.835 170.0725 30.75 170.625 C29.72418729 173.87340691 28.03436106 176.28751859 26 179 C25.34 179 24.68 179 24 179 C23.9175 179.53625 23.835 180.0725 23.75 180.625 C22.72418729 183.87340691 21.03436106 186.28751859 19 189 C18.34 189 17.68 189 17 189 C16.87625 189.598125 16.7525 190.19625 16.625 190.8125 C16 193 16 193 14 196 C13.34 196 12.68 196 12 196 C12 196.99 12 197.98 12 199 C11.34 199 10.68 199 10 199 C9.87625 199.598125 9.7525 200.19625 9.625 200.8125 C9 203 9 203 7 206 C6.34 206 5.68 206 5 206 C5 206.99 5 207.98 5 209 C4.34 209 3.68 209 3 209 C2.87625 209.598125 2.7525 210.19625 2.625 210.8125 C2 213 2 213 0 216 C-0.66 216 -1.32 216 -2 216 C-2 216.99 -2 217.98 -2 219 C-2.66 219 -3.32 219 -4 219 C-4.12375 219.598125 -4.2475 220.19625 -4.375 220.8125 C-5 223 -5 223 -7 226 C-7.66 226 -8.32 226 -9 226 C-9 226.99 -9 227.98 -9 229 C-9.66 229 -10.32 229 -11 229 C-11.103125 229.5775 -11.20625 230.155 -11.3125 230.75 C-12.19561063 233.64018023 -12.74104781 234.9237552 -15 237 C-18.15626244 237.58061857 -21.28113659 237.46375341 -24.48046875 237.390625 C-25.40845779 237.38496521 -26.33644684 237.37930542 -27.29255676 237.37347412 C-30.25806146 237.35107376 -33.2223602 237.30087073 -36.1875 237.25 C-38.19724818 237.22993973 -40.20701529 237.21168813 -42.21679688 237.1953125 C-47.14499629 237.15119696 -52.07229365 237.08214424 -57 237 C-57 236.01 -57 235.02 -57 234 C-56.34 234 -55.68 234 -55 234 C-55 233.01 -55 232.02 -55 231 C-54.34 231 -53.68 231 -53 231 C-52.87625 230.401875 -52.7525 229.80375 -52.625 229.1875 C-52 227 -52 227 -50 224 C-49.34 224 -48.68 224 -48 224 C-48 223.01 -48 222.02 -48 221 C-47.34 221 -46.68 221 -46 221 C-45.87625 220.401875 -45.7525 219.80375 -45.625 219.1875 C-45 217 -45 217 -43 214 C-42.34 214 -41.68 214 -41 214 C-41 213.01 -41 212.02 -41 211 C-40.34 211 -39.68 211 -39 211 C-38.87625 210.401875 -38.7525 209.80375 -38.625 209.1875 C-38 207 -38 207 -36 204 C-35.34 204 -34.68 204 -34 204 C-34 203.01 -34 202.02 -34 201 C-33.34 201 -32.68 201 -32 201 C-31.87625 200.401875 -31.7525 199.80375 -31.625 199.1875 C-31 197 -31 197 -29 194 C-28.34 194 -27.68 194 -27 194 C-27 193.01 -27 192.02 -27 191 C-26.34 191 -25.68 191 -25 191 C-24.87625 190.401875 -24.7525 189.80375 -24.625 189.1875 C-24 187 -24 187 -22 184 C-21.34 184 -20.68 184 -20 184 C-20 183.01 -20 182.02 -20 181 C-19.34 181 -18.68 181 -18 181 C-17.87625 180.401875 -17.7525 179.80375 -17.625 179.1875 C-17 177 -17 177 -15 174 C-14.34 174 -13.68 174 -13 174 C-13 173.01 -13 172.02 -13 171 C-12.34 171 -11.68 171 -11 171 C-10.87625 170.401875 -10.7525 169.80375 -10.625 169.1875 C-10 167 -10 167 -8 164 C-7.34 164 -6.68 164 -6 164 C-5.9175 163.46375 -5.835 162.9275 -5.75 162.375 C-4.72418729 159.12659309 -3.03436106 156.71248141 -1 154 C-0.34 154 0.32 154 1 154 C1.0825 153.46375 1.165 152.9275 1.25 152.375 C2.27581271 149.12659309 3.96563894 146.71248141 6 144 C6.66 144 7.32 144 8 144 C8.0825 143.46375 8.165 142.9275 8.25 142.375 C9.27581271 139.12659309 10.96563894 136.71248141 13 134 C13.66 134 14.32 134 15 134 C15.0825 133.46375 15.165 132.9275 15.25 132.375 C16.27581271 129.12659309 17.96563894 126.71248141 20 124 C20.66 124 21.32 124 22 124 C22.0825 123.46375 22.165 122.9275 22.25 122.375 C23.27581271 119.12659309 24.96563894 116.71248141 27 114 C27.66 114 28.32 114 29 114 C27.95836992 110.96191226 26.9135405 108.89319709 24.875 106.375 C23 104 23 104 23 101 C22.34 101 21.68 101 21 101 C19.7109375 99.57421875 19.7109375 99.57421875 18.375 97.6875 C17.92898438 97.07261719 17.48296875 96.45773438 17.0234375 95.82421875 C16 94 16 94 16 91 C15.34 91 14.68 91 14 91 C14 90.01 14 89.02 14 88 C13.34 88 12.68 88 12 88 C9.70351351 85.4385343 9 84.52032428 9 81 C8.34 81 7.68 81 7 81 C7 80.01 7 79.02 7 78 C6.34 78 5.68 78 5 78 C2.70351351 75.4385343 2 74.52032428 2 71 C1.34 71 0.68 71 0 71 C0 70.01 0 69.02 0 68 C-0.66 68 -1.32 68 -2 68 C-4.29648649 65.4385343 -5 64.52032428 -5 61 C-5.66 61 -6.32 61 -7 61 C-7 60.01 -7 59.02 -7 58 C-7.66 58 -8.32 58 -9 58 C-11.29648649 55.4385343 -12 54.52032428 -12 51 C-12.66 51 -13.32 51 -14 51 C-14 50.01 -14 49.02 -14 48 C-14.66 48 -15.32 48 -16 48 C-18.29648649 45.4385343 -19 44.52032428 -19 41 C-19.66 41 -20.32 41 -21 41 C-21 40.01 -21 39.02 -21 38 C-21.66 38 -22.32 38 -23 38 C-24.2890625 36.57421875 -24.2890625 36.57421875 -25.625 34.6875 C-26.07101562 34.07261719 -26.51703125 33.45773438 -26.9765625 32.82421875 C-28 31 -28 31 -28 28 C-28.66 28 -29.32 28 -30 28 C-31.2890625 26.57421875 -31.2890625 26.57421875 -32.625 24.6875 C-33.07101562 24.07261719 -33.51703125 23.45773438 -33.9765625 22.82421875 C-35 21 -35 21 -35 18 C-35.66 18 -36.32 18 -37 18 C-38.2890625 16.57421875 -38.2890625 16.57421875 -39.625 14.6875 C-40.07101562 14.07261719 -40.51703125 13.45773438 -40.9765625 12.82421875 C-42 11 -42 11 -42 8 C-42.66 8 -43.32 8 -44 8 C-44.66 6.68 -45.32 5.36 -46 4 C-40.87153218 2.33526175 -36.14603472 1.67147399 -30.75 1.5 C-23.12588915 1.18099284 -15.59285514 0.49632432 -8.01855469 -0.42773438 C-2.20764618 -1.10382309 -2.20764618 -1.10382309 0 0 Z " fill="#B10CC9" transform="translate(874,110)"/>
<path d="M0 0 C0.00203479 0.88187229 0.00203479 0.88187229 0.00411069 1.78156018 C0.08482339 36.65382525 0.17580358 71.52604889 0.28005161 106.39825173 C0.29256995 110.58874312 0.3050028 114.77923476 0.31738281 118.96972656 C0.31984881 119.80395097 0.3223148 120.63817538 0.32485552 121.49767932 C0.36454052 134.99166894 0.39730667 148.48566688 0.42749982 161.97968069 C0.45865313 175.83371563 0.49727904 189.68771533 0.54279006 203.54171062 C0.57062135 212.08504656 0.59267753 220.62835684 0.60726251 229.17172584 C0.61783372 235.0363547 0.63568676 240.90093375 0.65916704 246.76552501 C0.67248636 250.14518823 0.68160743 253.52472092 0.68421364 256.90441895 C0.68755377 260.57872976 0.70307883 264.2528013 0.7215271 267.92706299 C0.71959237 268.98157441 0.71765763 270.03608584 0.71566427 271.12255216 C0.81070104 283.84306124 2.63415188 295.40903099 10 306 C15.46928288 310.82694914 21.64581165 311.67100785 28.75 311.375 C34.59811824 310.70021713 40.29222915 309.41849926 46 308 C47.4606285 310.64738916 48 311.89448334 48 315 C48.66 315 49.32 315 50 315 C50.804375 316.6396875 50.804375 316.6396875 51.625 318.3125 C54.27361595 323.61925929 57.13626615 328.80709595 60 334 C59.34 334 58.68 334 58 334 C58 334.66 58 335.32 58 336 C41.83980796 346.28375857 20.52564757 348.68411417 1.9375 344.8125 C-5.26028619 342.87534071 -12.28339907 339.87401803 -18 335 C-18 334.34 -18 333.68 -18 333 C-18.639375 332.731875 -19.27875 332.46375 -19.9375 332.1875 C-22 331 -22 331 -23 328 C-23.99 327.67 -24.98 327.34 -26 327 C-26 326.01 -26 325.02 -26 324 C-26.66 324 -27.32 324 -28 324 C-28 323.01 -28 322.02 -28 321 C-28.66 321 -29.32 321 -30 321 C-40.15231357 297.24555756 -41.32925739 273.62663398 -41.1953125 248.04199219 C-41.19146127 245.84138119 -41.18853978 243.64076841 -41.1864624 241.44015503 C-41.18020366 236.75001403 -41.16776466 232.05994752 -41.15032959 227.3698349 C-41.12298287 219.93644295 -41.11143424 212.50307444 -41.10205078 205.06964111 C-41.07998032 189.29639614 -41.04091553 173.52320488 -41 157.75 C-40.95579024 140.70010831 -40.91470802 123.65023252 -40.89316368 106.6002934 C-40.88326831 99.22749229 -40.86365624 91.85480365 -40.83630371 84.48204756 C-40.82127391 79.88143721 -40.81473156 75.28084175 -40.8103714 70.68021011 C-40.80666154 68.56561747 -40.79952944 66.45102727 -40.78850555 64.33646011 C-40.72490377 51.72872976 -41.34009786 39.49869737 -43 27 C-43.41422437 23.37685348 -43.8034183 19.75144582 -44.1875 16.125 C-44.28224609 15.28582031 -44.37699219 14.44664063 -44.47460938 13.58203125 C-44.55904297 12.77378906 -44.64347656 11.96554687 -44.73046875 11.1328125 C-44.80676514 10.43043457 -44.88306152 9.72805664 -44.96166992 9.00439453 C-45.00318846 6.83326582 -44.61553741 5.07427677 -44 3 C-42.03933594 2.81824219 -42.03933594 2.81824219 -40.0390625 2.6328125 C-38.23435166 2.46379073 -36.429666 2.29449988 -34.625 2.125 C-33.68140625 2.03694092 -32.7378125 1.94888184 -31.765625 1.8581543 C-27.09499363 1.41558693 -22.43154961 0.94687147 -17.7734375 0.38671875 C-16.96696777 0.29052246 -16.16049805 0.19432617 -15.32958984 0.09521484 C-13.81084939 -0.08909677 -12.29287478 -0.27986872 -10.77587891 -0.47802734 C-6.89942252 -0.94660998 -3.7890671 -0.86289318 0 0 Z " fill="#B10CC9" transform="translate(513,4)"/>
<path d="M0 0 C0 106.59 0 213.18 0 323 C-14.85 323 -29.7 323 -45 323 C-45.00364563 319.57271011 -45.00729126 316.14542023 -45.01104736 312.61427307 C-45.04642615 281.08611532 -45.10157865 249.5580473 -45.17792095 218.0299621 C-45.18793677 213.8862674 -45.19778118 209.74257231 -45.20751953 205.59887695 C-45.2094609 204.77404381 -45.21140228 203.94921066 -45.21340248 203.09938257 C-45.2443084 189.79523117 -45.2613711 176.49109696 -45.27319422 163.18691648 C-45.28566524 149.50568704 -45.31329941 135.8245469 -45.35461307 122.14337391 C-45.37957948 113.7213387 -45.39312974 105.29945184 -45.39142957 96.87737911 C-45.3913995 91.07896089 -45.40627753 85.28069224 -45.43216428 79.48233248 C-45.44661645 76.15155608 -45.45295061 72.82133868 -45.44580269 69.4905014 C-45.41610258 53.50529935 -46.60025684 38.34174593 -49.53241682 22.620839 C-50.22449769 18.74167348 -50.75235839 14.84569231 -51.25 10.9375 C-51.39953125 9.77089844 -51.5490625 8.60429688 -51.703125 7.40234375 C-51.80109375 6.60957031 -51.8990625 5.81679688 -52 5 C-48.71070827 4.29483844 -45.50066083 3.80541148 -42.1484375 3.53515625 C-41.22337402 3.4582959 -40.29831055 3.38143555 -39.34521484 3.30224609 C-38.36504395 3.22312988 -37.38487305 3.14401367 -36.375 3.0625 C-27.91206992 2.35804155 -19.46733438 1.56411212 -11.02880859 0.60961914 C-7.30326527 0.19774378 -3.7615732 0 0 0 Z " fill="#B10CC9" transform="translate(1129,24)"/>
<path d="M0 0 C1.13953125 0.25136719 2.2790625 0.50273437 3.453125 0.76171875 C6.32498387 1.44360484 9.16074874 2.19420952 12 3 C12.85722656 3.23589844 13.71445313 3.47179687 14.59765625 3.71484375 C26.5734553 7.13914487 37.88113914 12.44056957 49 18 C49 18.66 49 19.32 49 20 C49.69480469 20.08378906 50.38960938 20.16757812 51.10546875 20.25390625 C54.72891591 21.18788521 57.21651291 22.84704718 60.3125 24.9375 C61.38113281 25.64777344 62.44976562 26.35804687 63.55078125 27.08984375 C64.35902344 27.72019531 65.16726563 28.35054687 66 29 C66 29.66 66 30.32 66 31 C67.32 31.33 68.64 31.66 70 32 C70 32.66 70 33.32 70 34 C71.65 34.66 73.3 35.32 75 36 C75 36.66 75 37.32 75 38 C76.01513672 38.28423828 76.01513672 38.28423828 77.05078125 38.57421875 C81.20357923 40.58186281 83.98044737 43.54512663 87.1875 46.8125 C87.81591797 47.42931641 88.44433594 48.04613281 89.09179688 48.68164062 C92.35349722 51.96427167 94.51942224 54.53372676 96 59 C98.01735205 60.34410262 98.01735205 60.34410262 100 61 C100 61.99 100 62.98 100 64 C100.99 64.33 101.98 64.66 103 65 C105.32265612 67.58072903 106 68.45176068 106 72 C106.66 72 107.32 72 108 72 C108 72.99 108 73.98 108 75 C108.66 75 109.32 75 110 75 C110 75.99 110 76.98 110 78 C110.66 78 111.32 78 112 78 C112.33 79.65 112.66 81.3 113 83 C113.66 83 114.32 83 115 83 C126.39826286 105.03287038 133.86812174 127.31510497 137 152 C137.17917969 153.26457031 137.35835938 154.52914062 137.54296875 155.83203125 C141.69013167 189.42324719 132.1267318 224.28677682 117 254 C116.34 254 115.68 254 115 254 C114.896875 254.721875 114.79375 255.44375 114.6875 256.1875 C113.93206053 259.27793421 112.84468685 261.41743841 111 264 C110.34 264 109.68 264 109 264 C109 264.99 109 265.98 109 267 C108.34 267 107.68 267 107 267 C106.87625 267.598125 106.7525 268.19625 106.625 268.8125 C106 271 106 271 104 274 C103.34 274 102.68 274 102 274 C101.34 275.65 100.68 277.3 100 279 C99.34 279 98.68 279 98 279 C97.62875 280.175625 97.62875 280.175625 97.25 281.375 C95.79075497 284.43941457 94.94985044 284.61725761 92 286 C91.71125 286.59167969 91.4225 287.18335938 91.125 287.79296875 C89.77581783 290.43980182 88.10497074 292.16050698 86 294.25 C85.29875 294.95640625 84.5975 295.6628125 83.875 296.390625 C82 298 82 298 80 298 C79.773125 298.61875 79.54625 299.2375 79.3125 299.875 C77.61583557 302.6219805 75.94748289 302.86635273 73 304 C72.67 304.99 72.34 305.98 72 307 C70.2578125 308.60546875 70.2578125 308.60546875 68.125 310.1875 C67.42632812 310.71730469 66.72765625 311.24710937 66.0078125 311.79296875 C64 313 64 313 61 313 C61 313.66 61 314.32 61 315 C58.09451118 317.04169485 56.59857954 318 53 318 C53 318.66 53 319.32 53 320 C50.69 320.66 48.38 321.32 46 322 C46 322.66 46 323.32 46 324 C45.23816406 324.31453125 44.47632813 324.6290625 43.69140625 324.953125 C38.92948089 326.92685686 34.17941214 328.89945682 29.5 331.0625 C13.77757712 338.05336303 -2.99857248 341.201408 -20 343 C-20.82757813 343.11214844 -21.65515625 343.22429687 -22.5078125 343.33984375 C-56.41366935 347.90649975 -91.18849268 337.3814692 -121 322 C-121 321.34 -121 320.68 -121 320 C-122.65 319.67 -124.3 319.34 -126 319 C-126 318.34 -126 317.68 -126 317 C-126.52078125 316.92652344 -127.0415625 316.85304688 -127.578125 316.77734375 C-131.04195854 315.66556492 -133.80160101 313.63285929 -136.75 311.5625 C-137.35199219 311.15451172 -137.95398438 310.74652344 -138.57421875 310.32617188 C-140.08960812 309.27295908 -141.5502034 308.14181957 -143 307 C-143 306.34 -143 305.68 -143 305 C-143.556875 304.938125 -144.11375 304.87625 -144.6875 304.8125 C-147.99038567 303.65202666 -149.58120525 301.52873996 -152 299 C-153.30445984 297.86568709 -154.61757511 296.74127933 -155.9375 295.625 C-159.63982374 292.41444601 -163.18757133 289.03753965 -166 285 C-166 284.34 -166 283.68 -166 283 C-166.9590625 282.62875 -166.9590625 282.62875 -167.9375 282.25 C-170 281 -170 281 -170.5625 278.9375 C-170.706875 278.298125 -170.85125 277.65875 -171 277 C-171.99 276.67 -172.98 276.34 -174 276 C-176.32265612 273.41927097 -177 272.54823932 -177 269 C-177.66 269 -178.32 269 -179 269 C-179 268.01 -179 267.02 -179 266 C-179.66 266 -180.32 266 -181 266 C-181 265.01 -181 264.02 -181 263 C-181.66 263 -182.32 263 -183 263 C-184.00484204 261.04414675 -185.00373805 259.08523763 -186 257.125 C-186.556875 256.03445313 -187.11375 254.94390625 -187.6875 253.8203125 C-189 251 -189 251 -189 249 C-189.66 249 -190.32 249 -191 249 C-211.59661721 203.63276675 -215.57368622 154.15786329 -197.8828125 107.0234375 C-194.69665268 99.13092397 -190.88363406 91.5658116 -187 84 C-186.34 84 -185.68 84 -185 84 C-184.67 82.35 -184.34 80.7 -184 79 C-183.34 79 -182.68 79 -182 79 C-181.896875 78.443125 -181.79375 77.88625 -181.6875 77.3125 C-180.85821592 74.5230899 -179.65700944 72.3860936 -178 70 C-177.34 70 -176.68 70 -176 70 C-175.505 68.02 -175.505 68.02 -175 66 C-174.34 66 -173.68 66 -173 66 C-172.773125 65.29875 -172.54625 64.5975 -172.3125 63.875 C-169.77421281 58.31494234 -165.32373068 54.22078471 -161 50 C-160.47535156 49.46503906 -159.95070312 48.93007812 -159.41015625 48.37890625 C-154.00757239 42.87831633 -148.37087376 37.37915132 -142 33 C-141.34 33 -140.68 33 -140 33 C-139.67 32.01 -139.34 31.02 -139 30 C-138.01 30 -137.02 30 -136 30 C-136 29.34 -136 28.68 -136 28 C-130.70588235 24 -130.70588235 24 -127 24 C-127 23.34 -127 22.68 -127 22 C-125.35 21.67 -123.7 21.34 -122 21 C-122 20.34 -122 19.68 -122 19 C-84.49162613 -0.65199375 -41.91484806 -9.36668543 0 0 Z M-156.5 62.625 C-185.57213083 95.86536737 -199.47346634 138.2415171 -196.87109375 182.17626953 C-194.06069365 221.08049394 -177.07422383 256.31821996 -150 284 C-149.27683594 284.78503906 -148.55367187 285.57007813 -147.80859375 286.37890625 C-136.80996985 298.04537828 -123.17898197 306.72488287 -109 314 C-108.38833984 314.31807617 -107.77667969 314.63615234 -107.14648438 314.96386719 C-92.34791773 322.56979 -76.40876694 327.37535258 -60 330 C-58.30037109 330.27650391 -58.30037109 330.27650391 -56.56640625 330.55859375 C-38.70138351 332.68869532 -18.44578534 332.40898254 -1 328 C0.22686523 327.70198486 0.22686523 327.70198486 1.47851562 327.39794922 C44.23843311 316.80320352 80.57887722 290.26355129 103.47949219 252.56445312 C124.70995924 216.165282 131.79268923 171.00609989 121 130 C117.43710404 116.94690828 112.53077972 104.83476487 106 93 C105.42378906 91.93394531 104.84757812 90.86789063 104.25390625 89.76953125 C96.75118157 76.3755216 86.97029958 64.68900985 76 54 C75.48824219 53.443125 74.97648437 52.88625 74.44921875 52.3125 C48.40905816 24.65528447 7.46379759 10.23517651 -29.7265625 8.71875 C-78.63781838 7.52619652 -123.13031676 27.21472462 -156.5 62.625 Z " fill="#B10FC9" transform="translate(223,22)"/>
<path d="M0 0 C0.6875 1.8125 0.6875 1.8125 1 4 C-1.30926276 6.91217617 -4.34134287 8.4892563 -7.5390625 10.30078125 C-8.66521973 10.94160645 -9.79137695 11.58243164 -10.95166016 12.24267578 C-12.17603992 12.93273581 -13.40048815 13.62267437 -14.625 14.3125 C-15.88220968 15.02550702 -17.1392059 15.73889054 -18.39599609 16.45263672 C-27.78968593 21.78049478 -37.21032973 27.06158183 -46.65087891 32.3059082 C-52.84143412 35.75283865 -58.94793957 39.31520276 -65 43 C-61.06123639 50.2277312 -56.34757736 56.88320259 -51.6640625 63.64257812 C-36.83338953 85.18592465 -36.83338953 85.18592465 -38.33203125 95.46484375 C-40.42452716 103.40653874 -44.08526346 110.44256001 -51 115 C-54.2049409 116.60247045 -57.51459986 116.36066943 -61 116 C-64.26171875 114.77734375 -64.26171875 114.77734375 -67.6875 112.9375 C-69.06090879 112.21039112 -70.43463618 111.48388387 -71.80859375 110.7578125 C-72.99364502 110.12214355 -72.99364502 110.12214355 -74.20263672 109.47363281 C-76.91870296 108.04282675 -79.65412906 106.65529944 -82.39900208 105.28068542 C-85.02617477 103.96484646 -87.64809986 102.63872992 -90.26968384 101.3117981 C-91.58355053 100.64880068 -92.89911498 99.98915642 -94.21640015 99.33297729 C-96.092924 98.39600555 -97.96106659 97.44394652 -99.828125 96.48828125 C-100.9202832 95.93696533 -102.01244141 95.38564941 -103.13769531 94.81762695 C-107.74104612 91.8943971 -110.33004646 88.45078311 -111.62890625 83.12890625 C-113.19170723 74.16336377 -113.13166525 65.07027249 -113 56 C-110.625 55.375 -110.625 55.375 -108 55 C-105.38486904 57.61513096 -105.61494573 59.05679245 -105.32421875 62.70703125 C-105.21787109 63.85107422 -105.11152344 64.99511719 -105.00195312 66.17382812 C-104.79340778 68.58699567 -104.59537573 71.00109634 -104.40820312 73.41601562 C-103.82998696 80.10041589 -103.82998696 80.10041589 -100.97265625 86.02734375 C-97.04292189 88.63511754 -93.01005817 90.7359254 -88.75 92.75 C-86.96127391 93.61649896 -85.1735303 94.48502867 -83.38671875 95.35546875 C-82.48872559 95.79165527 -81.59073242 96.2278418 -80.66552734 96.67724609 C-75.86447489 99.05974309 -71.15970998 101.62633863 -66.46972656 104.21972656 C-61.48929656 106.93038947 -61.48929656 106.93038947 -56 108 C-53.22079847 107.15305355 -52.21415696 106.29812903 -50.515625 103.93359375 C-47.56573799 98.11576104 -45.8958708 93.51478262 -47 87 C-50.04922405 79.97987209 -54.3304021 73.97121417 -58.75 67.75 C-60.19100284 65.70245508 -61.63111718 63.65428456 -63.0703125 61.60546875 C-63.75383789 60.63399902 -64.43736328 59.6625293 -65.14160156 58.66162109 C-67.35387923 55.49316982 -69.5006023 52.29042725 -71.625 49.0625 C-76.29617856 40.99074373 -76.29617856 40.99074373 -83 35 C-91.40540835 34.21281295 -98.1154865 36.72857272 -105.9375 39.625 C-107.75411133 40.26501953 -107.75411133 40.26501953 -109.60742188 40.91796875 C-122.34374261 45.53807427 -133.32433516 50.80845018 -139.3359375 63.56640625 C-140.03212661 65.22494025 -140.71123729 66.89072449 -141.375 68.5625 C-141.74294678 69.45348389 -142.11089355 70.34446777 -142.48999023 71.26245117 C-143.68096907 74.16698891 -144.84396848 77.08138595 -146 80 C-146.42200684 81.06154297 -146.84401367 82.12308594 -147.27880859 83.21679688 C-149.88776246 89.79769369 -152.46042806 96.39203199 -155 103 C-146.91706715 109.86595195 -138.46141633 116.14428797 -129.90625 122.40234375 C-125.18194939 125.85839461 -120.49149163 129.35793054 -115.8125 132.875 C-115.12325439 133.39296143 -114.43400879 133.91092285 -113.72387695 134.44458008 C-112.14873628 135.62903546 -110.57428163 136.81440308 -109 138 C-108.96241577 137.16976318 -108.96241577 137.16976318 -108.92407227 136.32275391 C-107.65437889 108.65437889 -107.65437889 108.65437889 -105 106 C-102.375 106.375 -102.375 106.375 -100 107 C-98.70773592 110.87679225 -99.16047154 114.31424149 -99.48828125 118.31640625 C-99.58317085 119.53480446 -99.58317085 119.53480446 -99.67997742 120.77781677 C-99.81564918 122.49364982 -99.95454921 124.20923022 -100.09643555 125.92456055 C-100.31189145 128.55507025 -100.51099732 131.18648422 -100.70898438 133.81835938 C-100.84275774 135.48445497 -100.97749082 137.15047384 -101.11328125 138.81640625 C-101.17171707 139.60600235 -101.23015289 140.39559845 -101.2903595 141.2091217 C-101.77078206 146.77078206 -101.77078206 146.77078206 -104 149 C-110.0632255 149.0090361 -113.61322139 145.59400882 -118.0625 141.9375 C-119.66043961 140.65888207 -121.25944251 139.38159211 -122.859375 138.10546875 C-123.69533203 137.43435059 -124.53128906 136.76323242 -125.39257812 136.07177734 C-129.81185301 132.56035725 -134.3140391 129.15897086 -138.8125 125.75 C-140.57574821 124.40915312 -142.33877473 123.06801466 -144.1015625 121.7265625 C-144.93333008 121.09395508 -145.76509766 120.46134766 -146.62207031 119.80957031 C-149.98124485 117.25328678 -153.33712352 114.69280327 -156.6875 112.125 C-158.17830078 110.98417969 -158.17830078 110.98417969 -159.69921875 109.8203125 C-162 108 -162 108 -164 106 C-163.65735514 100.83851809 -161.70942359 96.32821367 -159.76171875 91.6015625 C-159.43967972 90.80777191 -159.11764069 90.01398132 -158.7858429 89.19613647 C-158.10535003 87.52246992 -157.42187394 85.85001356 -156.7355957 84.17871094 C-155.69481834 81.64283132 -154.66403996 79.10306711 -153.63476562 76.5625 C-152.96933978 74.92944706 -152.30334247 73.29662683 -151.63671875 71.6640625 C-151.33239426 70.91484528 -151.02806976 70.16562805 -150.71452332 69.39370728 C-145.26817167 56.16607443 -138.13481194 44.84836451 -125 38 C-123.08579055 37.47539448 -121.17119607 36.95186817 -119.25097656 36.44970703 C-108.97659087 33.58814717 -105.20230447 27.60098208 -100.07299805 18.51513672 C-99.12521712 16.78137229 -98.19220133 15.03938176 -97.2800293 13.28662109 C-96.01502994 11.02684922 -94.59978034 9.03290227 -93 7 C-90.6875 7 -90.6875 7 -88 8 C-86.74465062 10.71155466 -85.86769711 13.16433008 -85 16 C-84.27968716 18.00320579 -83.55034155 20.00318406 -82.8125 22 C-82.20793309 23.66652152 -81.60362499 25.33313708 -81 27 C-75.03632559 26.35461863 -69.76544951 24.17301049 -64.21484375 22.02734375 C-63.16333633 21.62600723 -62.11182892 21.22467072 -61.02845764 20.81117249 C-57.66276805 19.5251996 -54.3001047 18.23151506 -50.9375 16.9375 C-48.73392209 16.09388334 -46.53014775 15.25077955 -44.32617188 14.40820312 C-43.24268463 13.99357819 -42.15919739 13.57895325 -41.0428772 13.15176392 C-38.87136537 12.32092549 -36.69963375 11.49066126 -34.52767944 10.66098022 C-29.28557938 8.65539832 -24.05292055 6.63043113 -18.83642578 4.55908203 C-17.87184952 4.18022354 -16.90727325 3.80136505 -15.91346741 3.411026 C-14.10489476 2.7000704 -12.29966822 1.98052119 -10.4985199 1.2509613 C-9.69793655 0.93812698 -8.89735321 0.62529266 -8.07250977 0.30297852 C-7.37875748 0.02583511 -6.68500519 -0.25130829 -5.9702301 -0.53684998 C-3.64906489 -1.08249575 -2.23849187 -0.74566821 0 0 Z M-93 20 C-94.32 22.64 -95.64 25.28 -97 28 C-94.02934491 27.65772428 -94.02934491 27.65772428 -91 27 C-90.67 26.34 -90.34 25.68 -90 25 C-90.89363605 22.39068734 -90.89363605 22.39068734 -92 20 C-92.33 20 -92.66 20 -93 20 Z M-64.6875 29.9375 C-65.7403418 30.37352539 -65.7403418 30.37352539 -66.81445312 30.81835938 C-68.54650775 31.53710313 -70.27373781 32.26745331 -72 33 C-71.67 34.32 -71.34 35.64 -71 37 C-66.95698825 35.51481201 -63.38853744 33.57122002 -59.6875 31.375 C-58.08455078 30.42753906 -58.08455078 30.42753906 -56.44921875 29.4609375 C-55.64097656 28.97882813 -54.83273438 28.49671875 -54 28 C-58.17643955 26.60785348 -60.83437793 28.29335734 -64.6875 29.9375 Z " fill="#B314CA" transform="translate(268,117)"/>
<path d="M0 0 C1.875 0.125 1.875 0.125 4 1 C6.59946429 4.34216838 7.4687485 6.78126346 7 11 C6 12 6 12 3.4375 12.0625 C2.633125 12.041875 1.82875 12.02125 1 12 C-2.06476484 6.72860447 -2.06476484 6.72860447 -1.75 3.1875 C-1 1 -1 1 0 0 Z " fill="#B416CB" transform="translate(186,169)"/>
<path d="" fill="#B10DCB" transform="translate(0,0)"/>
</svg>
