<?xml version="1.0" encoding="UTF-8"?>
<svg version="1.1" xmlns="http://www.w3.org/2000/svg" width="86" height="77">
<path d="M0 0 C7.71306824 5.18129775 13.11215914 13.13613657 15.359375 22.125 C17.118127 32.67751198 15.67526386 42.23318795 10.171875 51.48046875 C5.04273893 58.54371654 -1.8130807 63.45821196 -10.0546875 66.4140625 C-22.32508423 68.33270635 -33.13623553 67.08439314 -43.453125 60 C-50.44671681 54.40512655 -55.75320088 46.65484373 -57.203125 37.75 C-58.0967441 24.63785825 -55.88613631 14.82787256 -47.203125 4.75 C-34.1928555 -7.82839333 -15.38647292 -8.72991371 0 0 Z M-47.203125 9.75 C-52.89438531 19.09564852 -55.68122783 27.43253999 -53.7421875 38.34375 C-52.12581072 44.50499798 -49.47446897 49.0525362 -45.203125 53.75 C-44.46642578 54.56791016 -44.46642578 54.56791016 -43.71484375 55.40234375 C-37.94118098 61.03273946 -29.09491222 64.88873106 -21.015625 65.25 C-9.92925469 63.7960498 -0.58382787 59.55400358 6.515625 50.6796875 C11.90297507 42.56581269 14.11252024 33.86340394 12.3359375 24.2578125 C9.92166901 15.14039857 4.87344582 6.86983006 -3.203125 1.75 C-18.32659281 -6.04234858 -36.16374279 -3.54013004 -47.203125 9.75 Z " fill="#C346D6" transform="translate(65.203125,8.25)"/>
<path d="M0 0 C-1.32291145 3.96873434 -2.91149738 4.29905037 -6.5625 6.1875 C-7.57441406 6.71730469 -8.58632813 7.24710938 -9.62890625 7.79296875 C-10.41136719 8.19128906 -11.19382812 8.58960938 -12 9 C-12.29145394 12.1834467 -12.29145394 12.1834467 -9.9375 14.875 C-8 18 -8 18 -8.125 20.75 C-9 23 -9 23 -11 25 C-14.75561867 24.67342446 -17.73602552 23.8830622 -21 22 C-20.979375 23.093125 -20.95875 24.18625 -20.9375 25.3125 C-21 29 -21 29 -22 32 C-27.08938811 30.40956621 -30.87456643 27.2553049 -35 24 C-34.38785032 17.87850323 -33.40666514 13.08999868 -28.625 8.9375 C-27.75875 8.298125 -26.8925 7.65875 -26 7 C-25.13375 6.0925 -24.2675 5.185 -23.375 4.25 C-21 2 -21 2 -18 2 C-17.01 3.485 -17.01 3.485 -16 5 C-14.77023438 4.45859375 -14.77023438 4.45859375 -13.515625 3.90625 C-12.43796875 3.4421875 -11.3603125 2.978125 -10.25 2.5 C-9.18265625 2.0359375 -8.1153125 1.571875 -7.015625 1.09375 C-4 0 -4 0 0 0 Z M-28 11 C-30.05422089 14.18122488 -31.57404308 17.49753438 -33 21 C-32.21625 21.78375 -31.4325 22.5675 -30.625 23.375 C-28.3125 25.6875 -28.3125 25.6875 -26 28 C-25.01 28 -24.02 28 -23 28 C-23 26.02 -23 24.04 -23 22 C-22.34 21.67 -21.68 21.34 -21 21 C-21.66 20.67 -22.32 20.34 -23 20 C-23.6328125 18.15234375 -23.6328125 18.15234375 -24.125 15.9375 C-24.29257812 15.20402344 -24.46015625 14.47054687 -24.6328125 13.71484375 C-24.75398438 13.14894531 -24.87515625 12.58304688 -25 12 C-24.01 12 -23.02 12 -22 12 C-22 13.98 -22 15.96 -22 18 C-18.7 19.65 -15.4 21.3 -12 23 C-10.75945937 21.96561404 -10.75945937 21.96561404 -10.73046875 19.73828125 C-11.06746884 16.31455571 -12.17650216 14.85418053 -14.3125 12.1875 C-14.92738281 11.39730469 -15.54226562 10.60710938 -16.17578125 9.79296875 C-19.67471822 6.35397075 -24.43513616 8.34000313 -28 11 Z " fill="#C958D9" transform="translate(62,23)"/>
<path d="M0 0 C0.66 0.33 1.32 0.66 2 1 C0.30735784 4.10317729 -1.55674289 6.66431696 -3.9375 9.25 C-9.98225833 16.1217775 -12.34333921 24.27793405 -12.2109375 33.28125 C-11.50109531 42.43032715 -7.87717596 49.69660945 -1.0078125 55.7578125 C2.45970786 58.46640387 5.75730929 60.67415915 10 62 C9.01 62.495 9.01 62.495 8 63 C8 63.66 8 64.32 8 65 C-1.08488955 62.72877761 -7.07384301 56.68172605 -12 49 C-17.0158643 40.17899727 -17.45939448 29.590643 -14.9375 19.8125 C-12.13070076 11.68337391 -6.89019484 5.04160598 0 0 Z " fill="#C64ED7" transform="translate(24,8)"/>
<path d="M0 0 C0.66 0.33 1.32 0.66 2 1 C1 4 1 4 -0.6875 5.16796875 C-9.24112578 8.93907742 -20.96959538 9.90769573 -30 7 C-30 6.01 -30 5.02 -30 4 C-28.44152344 4.16048828 -28.44152344 4.16048828 -26.8515625 4.32421875 C-17.76496085 5.1475966 -10.11825805 5.33824664 -1.859375 0.83203125 C-1.24578125 0.55746094 -0.6321875 0.28289062 0 0 Z " fill="#BF3AD3" transform="translate(62,67)"/>
<path d="M0 0 C0.99 0.33 1.98 0.66 3 1 C4.27812379 4.19900348 4.16600839 7.52893046 4.1875 10.9375 C4.20167969 11.95714844 4.21585937 12.97679687 4.23046875 14.02734375 C3.99444914 17.07159667 3.28252995 19.24737643 2 22 C1.34 22 0.68 22 0 22 C0 14.74 0 7.48 0 0 Z " fill="#C03DD3" transform="translate(77,28)"/>
<path d="M0 0 C0.66 0.33 1.32 0.66 2 1 C-0.11830149 4.88355273 -2.66906042 8.05738808 -5.58203125 11.3515625 C-7.1159363 13.07662727 -7.1159363 13.07662727 -8.6875 15.4375 C-9.120625 15.953125 -9.55375 16.46875 -10 17 C-10.99 17 -11.98 17 -13 17 C-10.81081659 9.99461307 -5.93449363 4.18905433 0 0 Z " fill="#C957D9" transform="translate(24,8)"/>
<path d="M0 0 C1.61447958 4.03619895 0.19020382 6.9665315 -1 11 C-1.4382824 13.99175376 -1.74045195 16.98787653 -2 20 C-2.66 20 -3.32 20 -4 20 C-4.10854617 17.60293877 -4.18753157 15.21084162 -4.25 12.8125 C-4.28351562 12.13896484 -4.31703125 11.46542969 -4.3515625 10.77148438 C-4.42503051 7.00624873 -4.11393243 5.16891146 -1.984375 2.01171875 C-1.32953125 1.34785156 -0.6746875 0.68398438 0 0 Z " fill="#BD32D1" transform="translate(13,23)"/>
<path d="M0 0 C0.99 0 1.98 0 3 0 C3 0.9075 3 1.815 3 2.75 C3.64563501 6.03460628 3.64563501 6.03460628 5.84765625 7.2890625 C7.87305826 8.28211675 9.89684538 9.18556655 12 10 C10.23046875 11.0859375 10.23046875 11.0859375 8 12 C3.19777119 10.20933841 3.19777119 10.20933841 1 8 C0.08241776 5.19390549 0.05001938 3.00116309 0 0 Z " fill="#D47AE1" transform="translate(37,35)"/>
<path d="M0 0 C0.66 0 1.32 0 2 0 C4.77391969 3.29760954 7.03251635 6.50424773 6.9375 10.875 C6 13 6 13 4 15 C2.68 15 1.36 15 0 15 C0 14.34 0 13.68 0 13 C0.99 12.67 1.98 12.34 3 12 C3.34943109 7.80682689 2.58403645 6.23004556 0 3 C0 2.01 0 1.02 0 0 Z " fill="#CF6CDE" transform="translate(47,33)"/>
<path d="M0 0 C5.94 0.66 11.88 1.32 18 2 C18 2.66 18 3.32 18 4 C15.75006641 4.02707139 13.50003905 4.04642829 11.25 4.0625 C9.99703125 4.07410156 8.7440625 4.08570312 7.453125 4.09765625 C4.71463499 4.02021027 2.58119707 3.82780815 0 3 C0 2.01 0 1.02 0 0 Z " fill="#B824CE" transform="translate(32,71)"/>
<path d="M0 0 C0.33 0.66 0.66 1.32 1 2 C1.66 2 2.32 2 3 2 C1.05706522 9.92119565 1.05706522 9.92119565 -2 12 C-2.99 12 -3.98 12 -5 12 C-3.41037341 7.96479403 -1.71767682 3.98188718 0 0 Z " fill="#C957D9" transform="translate(76,48)"/>
<path d="M0 0 C8.57142857 -0.28571429 8.57142857 -0.28571429 12 2 C11.67 2.66 11.34 3.32 11 4 C7.875 3.47916667 4.75 2.95833333 1.625 2.4375 C0.75875 2.293125 -0.1075 2.14875 -1 2 C-0.67 1.34 -0.34 0.68 0 0 Z " fill="#BD34D1" transform="translate(44,3)"/>
<path d="M0 0 C0.33 0 0.66 0 1 0 C1 3.3 1 6.6 1 10 C1.99 10.33 2.98 10.66 4 11 C3.38722388 13.96175123 2.74627478 15.38058783 1 18 C0.04380267 14.00204108 -0.1039592 10.29196078 -0.0625 6.1875 C-0.05347656 5.02605469 -0.04445313 3.86460938 -0.03515625 2.66796875 C-0.02355469 1.78753906 -0.01195312 0.90710937 0 0 Z " fill="#CE6ADD" transform="translate(8,33)"/>
<path d="M0 0 C0.66 1.32 1.32 2.64 2 4 C0.88625 4.45375 -0.2275 4.9075 -1.375 5.375 C-4.96199008 6.72465986 -4.96199008 6.72465986 -7 9 C-7.66 9 -8.32 9 -9 9 C-7.48328036 4.44984107 -3.83108947 2.49942736 0 0 Z " fill="#D16FDF" transform="translate(39,28)"/>
<path d="M0 0 C0.66 0 1.32 0 2 0 C3.4606285 2.64738916 4 3.89448334 4 7 C3.34 7 2.68 7 2 7 C1.67 7.66 1.34 8.32 1 9 C-1.09230769 4.56923077 -1.09230769 4.56923077 -0.625 1.6875 C-0.41875 1.130625 -0.2125 0.57375 0 0 Z " fill="#CB5EDA" transform="translate(75,21)"/>
<path d="M0 0 C3.60654039 2.40436026 3.85452932 3.94679607 5 8 C4.01 8.66 3.02 9.32 2 10 C-0.09350689 6.5980513 -0.17942163 3.94727588 0 0 Z " fill="#BF3DD4" transform="translate(10,47)"/>
<path d="M0 0 C-1 3 -1 3 -4.0625 4.6875 C-5.031875 5.120625 -6.00125 5.55375 -7 6 C-7 3 -7 3 -5.75 1.3125 C-4 0 -4 0 0 0 Z " fill="#BC33D1" transform="translate(32,6)"/>
<path d="M0 0 C3.87132028 0.57352893 6.08172796 2.48704352 9 5 C7.3125 5.75 7.3125 5.75 5 6 C2.25 4.1875 2.25 4.1875 0 2 C0 1.34 0 0.68 0 0 Z " fill="#D16EDF" transform="translate(30,47)"/>
<path d="M0 0 C0.33 0.66 0.66 1.32 1 2 C-1.31 2.33 -3.62 2.66 -6 3 C-6 2.34 -6 1.68 -6 1 C-6.66 0.67 -7.32 0.34 -8 0 C-4.71303767 -0.79953138 -3.28976808 -1.09658936 0 0 Z " fill="#C246D6" transform="translate(56,72)"/>
<path d="M0 0 C0.66 0 1.32 0 2 0 C1.25 4.75 1.25 4.75 -1 7 C-2.32 7 -3.64 7 -5 7 C-5 6.34 -5 5.68 -5 5 C-4.360625 4.731875 -3.72125 4.46375 -3.0625 4.1875 C-0.66868314 3.11332248 -0.66868314 3.11332248 0 0 Z " fill="#CB5CDB" transform="translate(52,41)"/>
</svg>
