<?xml version="1.0" encoding="UTF-8"?>
<svg version="1.1" xmlns="http://www.w3.org/2000/svg" width="1500" height="619">
<path d="M0 0 C132.7980106 0 132.7980106 0 163.34765625 30.18359375 C181.25653434 49.20023749 185.8437093 71.97019732 185.13183594 97.28564453 C184.04696948 119.62183948 175.51342481 141.50233946 159 157 C150.34262278 164.18045988 141.07198953 170.03657 131 175 C131.37584229 175.65145996 131.75168457 176.30291992 132.13891602 176.97412109 C133.28280562 178.95686307 134.42668478 180.93961107 135.57055664 182.92236328 C136.91732423 185.25671642 138.26415607 187.59103235 139.61108398 189.92529297 C143.02377298 195.83978489 146.43539406 201.75488441 149.84375 207.671875 C156.4336888 219.10915849 163.04839382 230.5311142 169.7109375 241.92626953 C172.83552638 247.27473671 175.94550967 252.63127163 179.03515625 258 C179.37243744 258.58587891 179.70971863 259.17175781 180.05722046 259.77539062 C181.68680007 262.6068348 183.31443228 265.4393741 184.93945312 268.2734375 C188.18702273 273.92200325 191.50397004 279.5015181 195 285 C197.90078461 281.48634201 199.80926115 277.5790006 201.7734375 273.5 C202.13308594 272.76114563 202.49273438 272.02229126 202.86328125 271.26104736 C204.03842704 268.8428862 205.20693031 266.42158618 206.375 264 C207.19602145 262.30561325 208.01714879 260.61127781 208.83837891 258.91699219 C213.96672412 248.31606155 218.97040549 237.66498876 223.88427734 226.96289062 C229.18065521 215.48767862 234.75757565 204.15260937 240.32122803 192.80529785 C245.49305823 182.25231574 250.60184425 171.68337907 255.5 161 C261.23214479 148.49760546 267.2671686 136.15273815 273.32177734 123.80419922 C278.49342321 113.25158354 283.60201522 102.68300618 288.5 92 C294.2271733 79.50844879 300.25470586 67.17301007 306.30667114 54.83642578 C312.34877969 42.51537475 318.27524797 30.15481174 323.95507812 17.66210938 C326.71839118 11.61331238 329.66001142 5.75215212 333 0 C334.98 0 336.96 0 339 0 C354.51501668 31.94027109 354.51501668 31.94027109 361.91748047 47.4597168 C365.56808359 55.10914904 369.24955243 62.7435243 372.9375 70.375 C379.80402238 84.58519725 386.63576048 98.81193418 393.45898438 113.04296875 C399.28992876 125.20309575 405.13373681 137.3568753 411 149.5 C417.84490288 163.66890217 424.65590227 177.85394342 431.45898438 192.04296875 C437.28992876 204.20309575 443.13373681 216.3568753 449 228.5 C453.87267805 238.58641025 458.73897332 248.6758264 463.57519531 258.77978516 C466.16948248 264.19839911 468.78042997 269.60819662 471.4140625 275.0078125 C471.97206543 276.15668945 472.53006836 277.30556641 473.10498047 278.48925781 C474.18000446 280.701848 475.2595679 282.91223991 476.34423828 285.12011719 C476.8236084 286.10915039 477.30297852 287.09818359 477.796875 288.1171875 C478.22323242 288.98972168 478.64958984 289.86225586 479.08886719 290.76123047 C480 293 480 293 480 296 C462.84 296 445.68 296 428 296 C421.24973985 282.49947971 421.24973985 282.49947971 418.78125 276.7578125 C418.51542114 276.14211395 418.24959229 275.52641541 417.97570801 274.89205933 C417.14722303 272.97108507 416.32349513 271.0481177 415.5 269.125 C414.95213954 267.85272819 414.40396316 266.58059238 413.85546875 265.30859375 C412.77262556 262.79604659 411.6935537 260.28192969 410.6171875 257.76660156 C409.50751811 255.17550999 408.3863714 252.58975419 407.2578125 250.00683594 C406.97844849 249.36422821 406.69908447 248.72162048 406.41125488 248.05953979 C405.637703 246.28075742 404.8609399 244.50337255 404.08398438 242.72607422 C403 240 403 240 403 238 C358.45 238.33 313.9 238.66 268 239 C255.48785018 267.49467519 255.48785018 267.49467519 243 296 C211.32 296 179.64 296 147 296 C141.72 285.77 136.44 275.54 131 265 C126.47719294 256.68357847 126.47719294 256.68357847 121.92578125 248.3828125 C118.68931383 242.4706463 115.5929659 236.48815778 112.5 230.5 C106.50719693 218.9021846 100.29029704 207.43852596 94 196 C92.02 192.37 90.04 188.74 88 185 C73.81 185 59.62 185 45 185 C45 221.63 45 258.26 45 296 C30.15 296 15.3 296 0 296 C0 198.32 0 100.64 0 0 Z M45 38 C45 74.3 45 110.6 45 148 C89.1842844 149.83734547 89.1842844 149.83734547 126.9375 130.5625 C139.33233235 117.25036056 141.72255865 100.79950137 141.13623047 83.19873047 C140.46798907 72.41345803 135.9336877 61.4940375 128 54 C105.07723083 34.77583899 72.70473768 38 45 38 Z M335 87 C334.55309814 87.99926514 334.10619629 88.99853027 333.64575195 90.02807617 C319.16263498 122.4111293 319.16263498 122.4111293 313.06591797 136.01928711 C312.06172119 138.26071043 311.05814273 140.50241087 310.05517578 142.74438477 C307.20648344 149.10521842 304.34074124 155.4579011 301.45649719 161.80270386 C299.77901974 165.49423804 298.10570791 169.18765434 296.43258667 172.88116455 C295.60646145 174.70172188 294.77829405 176.52135397 293.94802856 178.34002686 C292.78712363 180.8832795 291.63311588 183.42955896 290.48046875 185.9765625 C290.12804108 186.74389709 289.7756134 187.51123169 289.4125061 188.30181885 C287.51756826 192.48300824 287.51756826 192.48300824 287 197 C319.01 197 351.02 197 384 197 C383.30955963 193.54779813 382.85552274 191.33261892 381.47216797 188.30004883 C381.15970627 187.60801361 380.84724457 186.91597839 380.52531433 186.20297241 C380.18438248 185.46181183 379.84345062 184.72065125 379.4921875 183.95703125 C379.13486038 183.16881989 378.77753326 182.38060852 378.40937805 181.56851196 C377.63836383 179.86895813 376.86505346 178.17044446 376.08969116 176.47286987 C374.02127721 171.94270918 371.97136163 167.40417102 369.91796875 162.8671875 C369.50120377 161.94769821 369.08443878 161.02820892 368.65504456 160.08085632 C364.79046935 151.55160722 360.96955558 143.00364468 357.1875 134.4375 C356.88647369 133.7559787 356.58544739 133.0744574 356.27529907 132.37228394 C349.64305483 117.33552194 343.28946747 102.18280341 337 87 C336.34 87 335.68 87 335 87 Z " fill="#0073D9" transform="translate(1003,311)"/>
<path d="M0 0 C131.90691114 0 131.90691114 0 164 31 C176.92892786 44.25762941 184.28943978 63.58464758 185 82 C185.0515625 83.13179688 185.103125 84.26359375 185.15625 85.4296875 C185.74119983 110.04632627 179.7154613 134.37525116 162.3671875 152.62890625 C161.58601562 153.41136719 160.80484375 154.19382812 160 155 C159.23945312 155.77214844 158.47890625 156.54429687 157.6953125 157.33984375 C151.12290145 163.64289369 143.95828663 167.70505166 136 172 C134.32723944 172.98977265 132.65809717 173.98585427 131 175 C138.10608132 187.66161499 145.29021618 200.27241182 152.62548828 212.80273438 C156.94618951 220.18517184 161.23140865 227.58732088 165.5 235 C170.35602741 243.42777987 175.22595344 251.84714441 180.125 260.25 C180.69105957 261.22146973 181.25711914 262.19293945 181.84033203 263.19384766 C184.7920418 268.25018138 187.76495077 273.29286708 190.765625 278.3203125 C191.37132324 279.33706055 191.97702148 280.35380859 192.60107422 281.40136719 C193.76023511 283.34446927 194.92316399 285.28532983 196.09033203 287.22363281 C196.60450684 288.08569336 197.11868164 288.94775391 197.6484375 289.8359375 C198.10395996 290.59438965 198.55948242 291.3528418 199.02880859 292.13427734 C200 294 200 294 200 296 C182.51 296 165.02 296 147 296 C145.1025 292.32875 143.205 288.6575 141.25 284.875 C136.92414379 276.53196567 132.52997958 268.23397564 128 260 C123.72165348 252.22234494 119.57400629 244.38657902 115.5 236.5 C110.91106545 227.61801444 106.22328385 218.80002568 101.39648438 210.04492188 C96.82744114 201.7465872 92.43543377 193.37804156 88 185 C73.81 185 59.62 185 45 185 C45 221.63 45 258.26 45 296 C30.15 296 15.3 296 0 296 C0 198.32 0 100.64 0 0 Z M45 38 C45 74.3 45 110.6 45 148 C89.04169812 149.67456407 89.04169812 149.67456407 126.8125 130.6875 C138.03630181 118.57760857 141.38180658 102.84049906 141.2109375 86.76171875 C140.44558313 73.11289915 136.28400469 62.21108819 126.23828125 52.80859375 C103.91161694 34.76802556 71.24875144 38 45 38 Z " fill="#0073D9" transform="translate(778,311)"/>
<path d="M0 0 C-4.17768561 8.70991315 -8.85094562 17.00315104 -13.875 25.25 C-14.57073262 26.39948541 -15.26604707 27.54922402 -15.9609375 28.69921875 C-17.63655806 31.46864717 -19.31627955 34.23549138 -21 37 C-23.84511518 35.93282364 -25.94346501 35.04536057 -28.33203125 33.12890625 C-31.58176571 30.53577993 -34.97040465 28.7685966 -38.6875 26.9375 C-39.39575928 26.58679443 -40.10401855 26.23608887 -40.83374023 25.87475586 C-56.22166474 18.41484715 -74.7947644 16.1448962 -91.3828125 21.015625 C-95.55139801 22.58351089 -99.27426081 24.57250807 -103 27 C-103.9075 27.556875 -104.815 28.11375 -105.75 28.6875 C-112.90984869 36.04623338 -114.29936143 45.20636249 -114.31689453 55.02294922 C-114.15161064 65.22769914 -110.61203937 72.33971049 -104 80 C-103.53335938 80.56074219 -103.06671875 81.12148438 -102.5859375 81.69921875 C-88.9584041 96.68950549 -67.04202669 105.64099075 -49.375 114.984375 C-38.46554321 120.78446987 -28.56529746 127.16744819 -19 135 C-17.98292969 135.82113281 -16.96585938 136.64226562 -15.91796875 137.48828125 C-0.48629699 150.67534621 9.55008785 168.83700621 12 189 C12.9097455 204.90305116 11.22605963 220.63442038 4 235 C3.63132812 235.7734375 3.26265625 236.546875 2.8828125 237.34375 C-7.44804758 257.5779863 -26.05200446 269.54763003 -47.03173828 276.40234375 C-80.74449691 286.63911293 -118.93803391 280.77097616 -150 265 C-161.49004797 258.50443844 -161.49004797 258.50443844 -165 254 C-164.62922854 249.72847147 -162.84420164 246.54608195 -160.76171875 242.8515625 C-160.43967972 242.27594574 -160.11764069 241.70032898 -159.7858429 241.10726929 C-158.75941548 239.27618887 -157.72363313 237.45060237 -156.6875 235.625 C-156.00263513 234.40659834 -155.31838448 233.18785121 -154.63476562 231.96875 C-151.45001756 226.29726499 -148.23697875 220.64182928 -145 215 C-140.9125761 216.38940101 -137.53289122 218.47606255 -133.92211914 220.78320312 C-113.15898298 234.04124564 -90.72638808 241.41038552 -66.11328125 236.1015625 C-54.84100018 233.32267822 -45.86236426 227.84110993 -39.69921875 217.90234375 C-35.0530577 208.59405547 -35.39403347 195.60862607 -38.625 185.875 C-46.68847936 167.50818589 -65.04176636 158.41800809 -82.09765625 149.9375 C-82.82753754 149.57450806 -83.55741882 149.21151611 -84.30941772 148.83752441 C-87.98660655 147.01326178 -91.67014538 145.20374373 -95.36523438 143.41601562 C-102.66272138 139.85927224 -109.73658467 136.10183269 -116.62890625 131.8046875 C-117.26901138 131.40576294 -117.90911652 131.00683838 -118.56861877 130.5958252 C-137.57982973 118.48233228 -152.56398522 101.20730338 -158.30859375 79.15625 C-163.02605172 57.62118761 -162.06338684 32.03334368 -150 13 C-136.45312811 -5.96562064 -117.37521683 -16.58854767 -95 -21.875 C-60.55529735 -27.61578377 -27.86891925 -21.06607612 0 0 Z " fill="#0073D9" transform="translate(476,330)"/>
<path d="M0 0 C42.9 0 85.8 0 130 0 C130 13.2 130 26.4 130 40 C101.95 40 73.9 40 45 40 C45 66.73 45 93.46 45 121 C67.77 121 90.54 121 114 121 C114.020625 127.579375 114.04125 134.15875 114.0625 140.9375 C114.071604 143.01667725 114.08070801 145.09585449 114.09008789 147.23803711 C114.09300701 148.87613866 114.09555558 150.51424094 114.09765625 152.15234375 C114.10277222 153.01089966 114.10788818 153.86945557 114.11315918 154.75402832 C114.1134691 156.83636052 114.06242176 158.9186036 114 161 C113 162 113 162 110.29820251 162.12025452 C109.09241043 162.11803391 107.88661835 162.11581329 106.64428711 162.11352539 C105.63306337 162.11370619 105.63306337 162.11370619 104.60141087 162.11389065 C102.41002209 162.11314174 100.2187174 162.10551454 98.02734375 162.09765625 C96.678101 162.09618676 95.32885769 162.09516609 93.97961426 162.09460449 C88.9655675 162.0893524 83.95153293 162.0753913 78.9375 162.0625 C67.738125 162.041875 56.53875 162.02125 45 162 C45 192.69 45 223.38 45 255 C77.34 255 109.68 255 143 255 C143 268.53 143 282.06 143 296 C95.81 296 48.62 296 0 296 C0 198.32 0 100.64 0 0 Z " fill="#0073D9" transform="translate(608,311)"/>
<path d="M0 0 C15.18 0 30.36 0 46 0 C46 97.68 46 195.36 46 296 C30.82 296 15.64 296 0 296 C0 198.32 0 100.64 0 0 Z " fill="#0073D9" transform="translate(520,311)"/>
<path d="M0 0 C1.98 0.99 1.98 0.99 4 2 C4 6 4 6 2.92277908 7.5740149 C2.41243496 8.08284014 1.90209084 8.59166539 1.37628174 9.11590958 C0.79107128 9.70908423 0.20586082 10.30225888 -0.39708328 10.91340852 C-1.0507626 11.55543647 -1.70444191 12.19746441 -2.37792969 12.85894775 C-3.06396648 13.54840225 -3.75000328 14.23785675 -4.45682907 14.9482038 C-6.76909641 17.26708483 -9.0954189 19.57133726 -11.421875 21.87597656 C-13.07788516 23.53085901 -14.73301616 25.18662161 -16.3873291 26.84320068 C-20.89066725 31.34768985 -25.4062614 35.8397114 -29.92408752 40.32966328 C-34.1623433 44.54549617 -38.3914208 48.77050738 -42.62053633 52.99550459 C-50.99833611 61.36454632 -59.38503264 69.72461345 -67.77734375 78.07910156 C-75.93046084 86.19551175 -84.07937303 94.31610571 -92.22265625 102.44238281 C-92.97537914 103.19352936 -92.97537914 103.19352936 -93.74330854 103.95985058 C-96.26070122 106.47202317 -98.77801136 108.98427846 -101.29528046 111.49657488 C-122.18406863 132.34388515 -143.08745943 153.17651663 -164 174 C-165.32 173.34 -166.64 172.68 -168 172 C-168 168 -168 168 -166.92277908 166.4259851 C-166.41243496 165.91715986 -165.90209084 165.40833461 -165.37628174 164.88409042 C-164.79107128 164.29091577 -164.20586082 163.69774112 -163.60291672 163.08659148 C-162.9492374 162.44456353 -162.29555809 161.80253559 -161.62207031 161.14105225 C-160.93603352 160.45159775 -160.24999672 159.76214325 -159.54317093 159.0517962 C-157.23090359 156.73291517 -154.9045811 154.42866274 -152.578125 152.12402344 C-150.92211484 150.46914099 -149.26698384 148.81337839 -147.6126709 147.15679932 C-143.10933275 142.65231015 -138.5937386 138.1602886 -134.07591248 133.67033672 C-129.8376567 129.45450383 -125.6085792 125.22949262 -121.37946367 121.00449541 C-113.00166389 112.63545368 -104.61496736 104.27538655 -96.22265625 95.92089844 C-88.06953916 87.80448825 -79.92062697 79.68389429 -71.77734375 71.55761719 C-71.02462086 70.80647064 -71.02462086 70.80647064 -70.25669146 70.04014942 C-67.73929878 67.52797683 -65.22198864 65.01572154 -62.70471954 62.50342512 C-41.81593137 41.65611485 -20.91254057 20.82348337 0 0 Z " fill="#191CF7" transform="translate(553,116)"/>
<path d="M0 0 C1.98 0 3.96 0 6 0 C6 78.54 6 157.08 6 238 C4.02 238 2.04 238 0 238 C0 159.46 0 80.92 0 0 Z " fill="#1A17F9" transform="translate(326,22)"/>
<path d="M0 0 C76.23 0 152.46 0 231 0 C231 1.98 231 3.96 231 6 C154.77 6 78.54 6 0 6 C0 4.02 0 2.04 0 0 Z " fill="#1E08FE" transform="translate(31,355)"/>
<path d="M0 0 C2.80835357 1.28075662 4.85994023 2.61049398 7.03782272 4.79172707 C7.6135804 5.36350264 8.18933807 5.93527822 8.78254294 6.52438033 C9.40511615 7.15277922 10.02768936 7.7811781 10.66912842 8.42861938 C11.33816515 9.09594727 12.00720189 9.76327515 12.69651246 10.4508251 C14.94145523 12.69246855 17.17916606 14.94119504 19.41699219 17.18994141 C21.02304358 18.79655681 22.62953524 20.4027322 24.23643494 22.00849915 C28.60211923 26.37360856 32.96160057 30.74486621 37.32001781 35.11722994 C41.87418494 39.6838818 46.43399936 44.24488756 50.9932251 48.80648804 C58.6463318 56.46510886 66.29593396 64.12721173 73.94287109 71.79199219 C81.81910764 79.68658796 89.69744291 87.57907953 97.57861328 95.46875 C98.06444267 95.95510483 98.55027205 96.44145966 99.05082354 96.94255252 C101.48811019 99.38244926 103.9254382 101.82230468 106.36278677 104.26213956 C126.58160652 124.50169129 146.79309477 144.74855335 167 165 C165.35 166.65 163.7 168.3 162 170 C160.62437146 168.71034824 159.29233607 167.37310707 158 166 C158 165.34 158 164.68 158 164 C157.34 164 156.68 164 156 164 C154.64697266 162.62573242 154.64697266 162.62573242 153.0390625 160.66796875 C148.43808045 155.2580621 143.41690196 150.30850229 138.375 145.3125 C136.9828125 143.92708008 136.9828125 143.92708008 135.5625 142.51367188 C133.83759098 140.79741212 132.11164833 139.08219003 130.38427734 137.3684082 C127.91726029 134.91781099 125.45836712 132.45927437 123 130 C122.14760081 129.14760081 121.29520163 128.29520163 120.41697216 127.41697216 C79.27798144 86.27798144 38.13899072 45.13899072 -3 4 C-2.01 2.68 -1.02 1.36 0 0 Z " fill="#1E09FE" transform="translate(105,126)"/>
<path d="M0 0 C1.98 0.99 1.98 0.99 4 2 C4 5.92469561 2.33949201 7.0201283 -0.31856394 9.70580786 C-0.96057041 10.33907581 -1.60257688 10.97234375 -2.26403809 11.62480164 C-2.93782423 12.30115105 -3.61161036 12.97750046 -4.30581427 13.67434531 C-6.57895559 15.95245164 -8.86269841 18.21962912 -11.14648438 20.48706055 C-12.77272352 22.11245401 -14.39830341 23.7385073 -16.02326965 25.36517334 C-20.44825258 29.79101993 -24.88244982 34.20753119 -29.31830025 38.62248206 C-33.94812765 43.23360455 -38.56950757 47.85317704 -43.19177246 52.47187805 C-50.95490152 60.22673064 -58.72325059 67.97631833 -66.49560547 75.72192383 C-74.50204333 83.70083526 -82.50533218 91.6828836 -90.50439453 99.66918945 C-90.9972488 100.16125555 -91.49010307 100.65332165 -91.99789232 101.16029885 C-94.47031561 103.62880709 -96.94267699 106.09737733 -99.41500759 108.56597841 C-119.93374781 129.0536057 -140.46344553 149.53023015 -161 170 C-162.32 169.01 -163.64 168.02 -165 167 C-163.71924338 164.19164643 -162.38950602 162.14005977 -160.20827293 159.96217728 C-159.63649736 159.3864196 -159.06472178 158.81066193 -158.47561967 158.21745706 C-157.84722078 157.59488385 -157.2188219 156.97231064 -156.57138062 156.33087158 C-155.90405273 155.66183485 -155.23672485 154.99279811 -154.5491749 154.30348754 C-152.30753145 152.05854477 -150.05880496 149.82083394 -147.81005859 147.58300781 C-146.20344319 145.97695642 -144.5972678 144.37046476 -142.99150085 142.76356506 C-138.62639144 138.39788077 -134.25513379 134.03839943 -129.88277006 129.67998219 C-125.3161182 125.12581506 -120.75511244 120.56600064 -116.19351196 116.0067749 C-108.53489114 108.3536682 -100.87278827 100.70406604 -93.20800781 93.05712891 C-85.31341204 85.18089236 -77.42092047 77.30255709 -69.53125 69.42138672 C-69.04489517 68.93555733 -68.55854034 68.44972795 -68.05744748 67.94917646 C-65.61755074 65.51188981 -63.17769532 63.0745618 -60.73786044 60.63721323 C-40.49830871 40.41839348 -20.25144665 20.20690523 0 0 Z " fill="#1E09FE" transform="translate(285,408)"/>
</svg>
